<?xml version="1.0" encoding="UTF-8" standalone="no"?>
<svg 
    role="img" 
    xmlns="http://www.w3.org/2000/svg" 
    width="1000mm"
    height="1000mm"
    viewBox="0 0 1000 1000"
    style="max-width:1.6em; height: auto;">
    
    <path 
        id="path" 
        style="opacity:1;vector-effect:none;fill:#000000;fill-opacity:1;"
        d=" M 673 784C 693 817 719 841 765 841C 804 841 829 822 829 795C 829 763 804 751 761 732C 761 732 737 722 737 722C 669 693 624 657 624 581C 624 510 678 457 762 457C 822 457 865 477 896 532C 896 532 822 579 822 579C 806 550 789 539 762 539C 734 539 717 556 717 579C 717 607 734 618 775 636C 775 636 798 646 798 646C 878 680 923 715 923 794C 923 878 857 925 767 925C 680 925 624 883 596 828C 596 828 673 784 673 784M 341 792C 355 818 369 841 401 841C 432 841 451 828 451 782C 451 782 451 462 451 462C 451 462 545 462 545 462C 545 462 545 783 545 783C 545 880 488 924 405 924C 330 924 286 885 264 839C 264 839 341 792 341 792"
        transform="">
    </path>    
</svg>